<svg width="165" height="145" viewBox="0 0 165 145" fill="none" xmlns="http://www.w3.org/2000/svg">
<path d="M139.219 56.709C149.008 56.709 156.943 48.7734 156.943 38.9844C156.943 29.1953 149.008 21.2598 139.219 21.2598C129.43 21.2598 121.494 29.1953 121.494 38.9844C121.494 48.7734 129.43 56.709 139.219 56.709Z" fill="#FFCD29"/>
<path d="M139.219 56.709V21.2598C148.993 21.2598 156.943 29.2101 156.943 38.9844C156.943 48.7587 148.993 56.709 139.219 56.709Z" fill="#FFAE2C"/>
<path d="M165 89.4157V124.275C165 129.667 160.598 134.053 155.184 134.053H121.191C118.523 134.053 116.357 131.887 116.357 129.219C116.357 124.519 113.76 100.708 113.76 89.4157C113.76 77.4242 123.576 67.666 135.642 67.666H143.118C155.184 67.666 165 77.4242 165 89.4157Z" fill="#FFCD29"/>
<path d="M165 89.4157V124.275C165 129.667 160.598 134.053 155.184 134.053H139.219V67.666H143.118C155.184 67.666 165 77.4242 165 89.4157Z" fill="#FFAE2C"/>
<path d="M25.7812 56.709C35.5703 56.709 43.5059 48.7734 43.5059 38.9844C43.5059 29.1953 35.5703 21.2598 25.7812 21.2598C15.9922 21.2598 8.05664 29.1953 8.05664 38.9844C8.05664 48.7734 15.9922 56.709 25.7812 56.709Z" fill="#FFCD29"/>
<path d="M25.7812 56.709V21.2598C35.5556 21.2598 43.5059 29.2101 43.5059 38.9844C43.5059 48.7587 35.5556 56.709 25.7812 56.709Z" fill="#FFAE2C"/>
<path d="M51.2402 89.4157C51.2402 101.07 48.6428 124.306 48.6428 129.219C48.6428 131.887 46.4771 134.053 43.8088 134.053H9.47783C4.25068 134.053 0 129.818 0 124.61V89.4157C0 77.4242 9.81621 67.666 21.8818 67.666H29.3584C41.424 67.666 51.2402 77.4242 51.2402 89.4157Z" fill="#FFAE2C"/>
<path d="M51.2402 89.4157C51.2402 101.07 48.6428 124.306 48.6428 129.219C48.6428 131.887 46.4771 134.053 43.8088 134.053H25.7812V67.666H29.3584C41.424 67.666 51.2402 77.4242 51.2402 89.4157Z" fill="#F89E0E"/>
<path d="M82.5 56.709C97.9845 56.709 110.537 44.1563 110.537 28.6719C110.537 13.1874 97.9845 0.634766 82.5 0.634766C67.0155 0.634766 54.4629 13.1874 54.4629 28.6719C54.4629 44.1563 67.0155 56.709 82.5 56.709Z" fill="#9B74C2"/>
<path d="M82.5 56.709V0.634766C97.9591 0.634766 110.537 13.2128 110.537 28.6719C110.537 44.131 97.9591 56.709 82.5 56.709Z" fill="#CFB8E7"/>
<path d="M126.006 106.667V133.079C126.006 139.302 120.943 144.365 114.72 144.365H50.2799C44.0569 144.365 38.9941 139.302 38.9941 133.079V106.667C38.9941 85.1618 56.4899 67.666 77.9947 67.666H87.0053C108.51 67.666 126.006 85.1618 126.006 106.667Z" fill="#9B74C2"/>
<path d="M126.006 106.667V133.079C126.006 139.302 120.943 144.365 114.72 144.365H82.5V67.666H87.0053C108.51 67.666 126.006 85.1618 126.006 106.667Z" fill="#CFB8E7"/>
</svg>
