<svg width="128" height="125" viewBox="0 0 128 125" fill="none" xmlns="http://www.w3.org/2000/svg">
<path d="M113.638 54.1719C117.178 54.1719 120.609 52.8086 123.301 50.334C125.988 47.8633 127.639 44.5567 127.947 41.0254C128.268 37.3614 127.121 33.8994 124.719 31.2774C122.324 28.6641 118.993 27.2256 115.331 27.2256H101.93L103.104 13.8008C103.425 10.1358 102.278 6.67386 99.875 4.05179C97.4814 1.43949 94.1504 3.43323e-05 90.4961 3.43323e-05C86.9561 3.43323e-05 83.5244 1.36332 80.833 3.83792C78.1455 6.30863 76.4951 9.61429 76.1865 13.1465L74.9541 27.2256H59.1465L60.3213 13.7998C60.6416 10.1358 59.4951 6.67386 57.0928 4.05082C54.6982 1.43851 51.3672 3.43323e-05 47.7129 3.43323e-05C44.1729 3.43323e-05 40.7412 1.36234 38.0498 3.83695C35.3623 6.30863 33.7129 9.61429 33.4033 13.1465L32.1719 27.2246H18.1055C14.5654 27.2246 11.1338 28.5879 8.44239 31.0625C5.75489 33.5342 4.1045 36.8399 3.7959 40.3721C3.47559 44.0362 4.62305 47.4991 7.02539 50.1211C9.41993 52.7334 12.75 54.1719 16.4043 54.1719H29.8135L28.4277 70.0088H14.3623C10.8223 70.0088 7.39063 71.3711 4.69922 73.8457C2.01172 76.3174 0.362308 79.6231 0.0527379 83.1543C-0.267575 86.8194 0.87891 90.2813 3.28223 92.9034C5.67578 95.5157 9.00684 96.9541 12.6611 96.9541H26.0713L24.8965 110.38C24.5762 114.044 25.7227 117.506 28.126 120.129C30.5195 122.741 33.8506 124.18 37.5049 124.18C41.0449 124.18 44.4766 122.817 47.167 120.343C49.8555 117.871 51.5059 114.565 51.8145 111.034C51.8164 111.016 51.8184 110.997 51.8193 110.979L53.0459 96.9541L68.8535 96.9551L67.6797 110.379C67.3584 114.044 68.5059 117.506 70.9082 120.128C73.3018 122.741 76.6328 124.18 80.2871 124.18C83.8271 124.18 87.2588 122.817 89.9502 120.343C92.6377 117.871 94.2881 114.565 94.5977 111.033C94.5986 111.022 94.5996 111.011 94.6006 110.999L95.8291 96.9551H109.896C109.925 96.9551 109.954 96.9551 109.983 96.9541C113.492 96.9317 116.89 95.5713 119.559 93.1172C122.246 90.6455 123.896 87.3399 124.205 83.8086C124.525 80.1446 123.379 76.6827 120.976 74.0596C118.582 71.4473 115.251 70.0088 111.589 70.0088H98.1865L99.5723 54.1719H113.638ZM91.3281 76.292C92.0391 77.0674 93.042 77.5088 94.0938 77.5088H111.596C113.122 77.5088 114.489 78.083 115.446 79.127C116.411 80.1807 116.868 81.6104 116.733 83.1543C116.435 86.5694 113.303 89.4541 109.895 89.4541C109.87 89.4541 109.846 89.4551 109.82 89.4551H92.3926C90.4482 89.4551 88.8262 90.9414 88.6572 92.878L87.126 110.372C87.126 110.383 87.125 110.393 87.124 110.402C86.8125 113.808 83.6875 116.68 80.2871 116.68C78.7607 116.68 77.3936 116.106 76.4375 115.062C75.4727 114.008 75.0146 112.577 75.1504 111.033L76.6816 93.5323C76.7734 92.4844 76.4209 91.4473 75.7109 90.6719C75 89.8965 73.9971 89.4551 72.9453 89.4551L49.6094 89.4541C47.665 89.4541 46.043 90.9405 45.874 92.878L44.3438 110.372C44.3418 110.388 44.3408 110.402 44.3398 110.417C44.0215 113.815 40.8994 116.681 37.5049 116.681C35.9785 116.681 34.6113 116.106 33.6543 115.062C32.6895 114.009 32.2324 112.578 32.3682 111.033L33.8994 93.5313C33.9912 92.4844 33.6387 91.4463 32.9287 90.6709C32.2178 89.8965 31.2148 89.4551 30.1631 89.4551H12.6611C11.1348 89.4551 9.76758 88.8799 8.81153 87.8369C7.84668 86.7832 7.38868 85.3526 7.52442 83.8086C7.82325 80.3936 10.9541 77.5088 14.3623 77.5088H31.8643C33.8086 77.5088 35.4307 76.0225 35.5996 74.086L37.6416 50.7491C37.7334 49.7022 37.3809 48.6641 36.6709 47.8887C35.9609 47.1143 34.957 46.6729 33.9063 46.6729H16.4043C14.8779 46.6729 13.5107 46.0977 12.5547 45.0547C11.5898 44.001 11.1318 42.5703 11.2676 41.0264C11.5664 37.6104 14.6982 34.7256 18.1055 34.7256H35.6074C37.5518 34.7256 39.1738 33.2393 39.3428 31.3028L40.875 13.8008C41.1738 10.3858 44.3047 7.50101 47.7129 7.50101C49.2393 7.50101 50.6064 8.07523 51.5625 9.11917C52.5273 10.1719 52.9854 11.6026 52.8496 13.1465L51.3184 30.6485C51.2266 31.6963 51.5791 32.7344 52.2891 33.5088C52.999 34.2842 54.0029 34.7256 55.0537 34.7256H78.3896C80.334 34.7256 81.9561 33.2393 82.126 31.3028L83.6572 13.8008C83.9561 10.3858 87.0879 7.50101 90.4961 7.50101C92.0215 7.50101 93.3896 8.07523 94.3457 9.11917C95.3105 10.1719 95.7676 11.6026 95.6328 13.1465L94.1016 30.6485C94.0098 31.6963 94.3623 32.7334 95.0723 33.5088C95.7822 34.2842 96.7852 34.7256 97.8369 34.7256H115.34C116.865 34.7256 118.232 35.3008 119.188 36.3438C120.154 37.3975 120.611 38.8282 120.476 40.3721C120.178 43.7881 117.046 46.6729 113.638 46.6729H96.1348C94.1914 46.6729 92.5693 48.1592 92.3994 50.0957L90.3574 73.4327C90.2656 74.4795 90.6182 75.5166 91.3281 76.292Z" fill="#FFCD29"/>
</svg>
