<svg width="198" height="198" viewBox="0 0 198 198" fill="none" xmlns="http://www.w3.org/2000/svg">
<g clip-path="url(#clip0)">
<path d="M141.384 110.447C141.848 109.983 141.848 109.287 141.384 108.823C141.23 108.668 140.998 108.513 140.766 108.513L113.231 104.491C112.844 104.414 112.535 104.182 112.38 103.873L100.005 78.8906C99.696 78.3492 99.0773 78.1172 98.4585 78.3492C98.2265 78.4266 98.0718 78.6586 97.9171 78.8906L85.6195 103.873C85.4648 104.182 85.1554 104.414 84.7687 104.491L57.2343 108.513C56.6156 108.591 56.2288 109.209 56.3062 109.828C56.3062 110.06 56.4609 110.292 56.6156 110.447L76.5703 129.86C76.8023 130.092 76.957 130.479 76.8796 130.866L72.1617 158.323C72.0843 158.941 72.471 159.483 73.0898 159.637C73.3218 159.715 73.5539 159.638 73.7859 159.56L98.4585 146.566C98.7679 146.412 99.1546 146.412 99.5413 146.566L124.214 159.56C124.755 159.87 125.452 159.638 125.761 159.096C125.838 158.864 125.916 158.632 125.838 158.4L121.12 130.943C121.043 130.556 121.198 130.17 121.43 129.938L141.384 110.447Z" fill="#FFCD29"/>
<path d="M182.531 106.116C182.918 105.729 182.918 105.187 182.531 104.801C182.377 104.646 182.222 104.569 181.99 104.569L159.87 101.32C159.56 101.243 159.328 101.088 159.174 100.856L149.274 80.8242C149.042 80.3601 148.5 80.2055 148.036 80.4375C147.881 80.5148 147.727 80.6695 147.649 80.8242L137.749 100.856C137.595 101.088 137.363 101.32 137.053 101.32L114.933 104.569C114.856 104.569 114.701 104.646 114.624 104.646L140.688 108.436C141.307 108.513 141.694 109.132 141.617 109.751C141.617 109.983 141.462 110.215 141.307 110.37L130.092 121.352L130.479 121.739C130.711 121.971 130.788 122.28 130.711 122.512L126.921 144.555C126.844 145.02 127.153 145.484 127.695 145.638C127.927 145.638 128.081 145.638 128.236 145.561L148.036 135.12C148.268 134.965 148.577 134.965 148.887 135.12L168.687 145.561C169.151 145.793 169.692 145.638 169.924 145.174C170.002 145.02 170.079 144.787 170.002 144.633L166.212 122.59C166.134 122.28 166.289 121.971 166.444 121.816L182.531 106.116Z" fill="#FFAE2C"/>
<path d="M67.2117 122.512C67.1343 122.203 67.289 121.894 67.4437 121.739L67.8304 121.352L56.6156 110.37C56.1515 109.905 56.1515 109.209 56.6156 108.745C56.7703 108.591 57.0023 108.436 57.2343 108.436L83.2992 104.646C83.2218 104.569 83.1445 104.569 82.9898 104.569L60.8695 101.32C60.5601 101.243 60.3281 101.088 60.1734 100.856L50.2734 80.8242C50.0413 80.3601 49.4999 80.2055 49.0359 80.4375C48.8812 80.5148 48.7265 80.6695 48.6492 80.8242L38.7492 100.856C38.5945 101.088 38.3624 101.32 38.0531 101.32L15.9328 104.569C15.4687 104.646 15.082 105.11 15.1593 105.574C15.1593 105.806 15.314 105.961 15.3913 106.116L31.4015 121.739C31.6335 121.971 31.7109 122.28 31.6335 122.512L27.8437 144.555C27.7663 145.02 28.0757 145.484 28.6171 145.638C28.8492 145.638 29.0038 145.638 29.1585 145.561L48.9585 135.12C49.1906 134.965 49.4999 134.965 49.8093 135.12L69.6093 145.561C70.0734 145.793 70.6148 145.638 70.8468 145.174C70.9242 145.02 71.0015 144.787 70.9242 144.633L67.2117 122.512Z" fill="#FFAE2C"/>
<path d="M195.912 94.8234C196.144 94.5914 196.144 94.2047 195.912 93.9726C195.835 93.8953 195.68 93.818 195.603 93.818L181.371 91.7297C181.217 91.7297 180.985 91.575 180.907 91.4203L174.565 78.5812C174.41 78.2719 174.101 78.1945 173.792 78.3492C173.714 78.4266 173.56 78.5039 173.56 78.5812L167.217 91.4203C167.14 91.575 166.985 91.7297 166.753 91.7297L155.539 93.3539L159.251 100.856C159.406 101.088 159.638 101.32 159.947 101.32L182.067 104.569C182.532 104.646 182.918 105.11 182.841 105.574C182.841 105.806 182.686 105.961 182.609 106.116L174.875 113.695L187.095 120.115C187.404 120.27 187.714 120.192 187.868 119.883C187.946 119.805 187.946 119.651 187.946 119.496L185.548 105.342C185.548 105.187 185.548 104.955 185.703 104.801L195.912 94.8234Z" fill="#FC9322"/>
<path d="M31.2472 91.807C31.0925 91.807 30.8605 91.6523 30.7832 91.4977L24.441 78.6586C24.2863 78.3492 23.9769 78.2719 23.6675 78.4266C23.5902 78.5039 23.4355 78.5812 23.4355 78.6586L17.0933 91.4977C17.016 91.6523 16.8613 91.807 16.6292 91.807L2.398 93.8953C2.08862 93.9727 1.85659 94.2047 1.93394 94.5914C1.93394 94.7461 2.01128 94.8234 2.08862 94.9008L12.3753 104.955C12.53 105.11 12.6074 105.265 12.53 105.497L10.1324 119.651C10.055 119.96 10.2871 120.27 10.5964 120.347C10.7511 120.347 10.8285 120.347 10.9832 120.27L23.2035 113.695L15.4691 106.116C15.0824 105.729 15.0824 105.187 15.4691 104.801C15.6238 104.646 15.7785 104.569 16.0105 104.569L38.1308 101.32C38.4402 101.243 38.6722 101.088 38.8269 100.856L42.5394 93.3539L31.2472 91.807Z" fill="#FC9322"/>
<path d="M46.6384 157.24H45.2462V155.848C45.2462 154.765 44.3954 153.914 43.3126 153.914C42.2298 153.914 41.379 154.765 41.379 155.848V157.24H39.9868C38.904 157.24 38.0532 158.091 38.0532 159.173C38.0532 160.256 38.904 161.107 39.9868 161.107H41.379V162.499C41.379 163.582 42.2298 164.433 43.3126 164.433C44.3954 164.433 45.2462 163.582 45.2462 162.499V161.107H46.6384C47.7212 161.107 48.572 160.256 48.572 159.173C48.572 158.091 47.7212 157.24 46.6384 157.24Z" fill="#55ACD5"/>
<path d="M90.9565 167.836C90.8792 167.604 90.8018 167.372 90.6472 167.14C90.5698 167.063 90.4925 166.908 90.4151 166.83C89.6417 166.134 88.4815 166.134 87.7081 166.83C87.6308 166.908 87.5534 166.985 87.4761 167.14C87.3987 167.217 87.3214 167.372 87.3214 167.449C87.244 167.604 87.244 167.681 87.244 167.836C87.1667 168.068 87.1667 168.377 87.244 168.609C87.244 168.764 87.3214 168.841 87.3214 168.996C87.3987 169.073 87.3987 169.228 87.4761 169.305C87.5534 169.383 87.6308 169.537 87.7081 169.615C88.4815 170.388 89.6417 170.388 90.4151 169.615C90.4925 169.537 90.5698 169.46 90.6472 169.305C90.7245 169.228 90.8019 169.073 90.8019 168.996C90.8792 168.919 90.8792 168.764 90.8792 168.609C91.0339 168.377 91.0339 168.068 90.9565 167.836Z" fill="#EA4647"/>
<path d="M123.441 13.4578C123.364 13.2258 123.286 12.9937 123.132 12.7617C123.054 12.6844 122.977 12.5297 122.899 12.4523C122.126 11.7562 120.966 11.7562 120.192 12.4523C120.115 12.5297 120.038 12.607 119.96 12.7617C119.883 12.8391 119.806 12.9937 119.806 13.0711C119.728 13.2258 119.728 13.3031 119.728 13.4578C119.651 13.6898 119.651 13.9992 119.728 14.2312C119.728 14.3859 119.806 14.4633 119.806 14.618C119.883 14.6953 119.883 14.85 119.96 14.9273C120.038 15.0047 120.115 15.1594 120.192 15.2367C120.966 16.0101 122.126 16.0101 122.899 15.2367C122.977 15.1594 123.054 15.082 123.132 14.9273C123.209 14.85 123.286 14.6953 123.286 14.618C123.364 14.5406 123.364 14.3859 123.364 14.2312C123.518 13.9219 123.518 13.6898 123.441 13.4578Z" fill="#FFCD29"/>
<path d="M148.732 26.993C145.561 26.3742 143.163 23.8992 142.545 20.8055C142.545 20.7281 142.467 20.6508 142.39 20.6508C142.313 20.6508 142.313 20.7281 142.235 20.8055C141.617 23.9766 139.142 26.3742 136.048 26.993C135.97 26.993 135.893 27.0703 135.893 27.1476C135.893 27.225 135.97 27.225 136.048 27.3023C139.219 27.9211 141.617 30.3961 142.235 33.4898C142.235 33.5672 142.313 33.6445 142.39 33.6445C142.467 33.6445 142.467 33.5672 142.545 33.4898C143.163 30.3187 145.638 27.9211 148.732 27.3023C148.809 27.3023 148.887 27.225 148.887 27.1476C148.887 27.0703 148.809 26.993 148.732 26.993Z" fill="#6DCC6D"/>
<path d="M75.2556 179.515C72.0845 178.896 69.6868 176.421 69.0681 173.327C69.0681 173.25 68.9907 173.173 68.9134 173.173C68.836 173.173 68.836 173.25 68.7587 173.327C68.1399 176.498 65.6649 178.896 62.5712 179.515C62.4939 179.515 62.4165 179.592 62.4165 179.67C62.4165 179.747 62.4939 179.747 62.5712 179.824C65.7423 180.443 68.1399 182.918 68.7587 186.012C68.7587 186.089 68.836 186.166 68.9134 186.166C68.9907 186.166 68.9907 186.089 69.0681 186.012C69.6868 182.841 72.1618 180.443 75.2556 179.824C75.3329 179.824 75.4103 179.747 75.4103 179.67C75.3329 179.592 75.3329 179.515 75.2556 179.515Z" fill="#FFCD29"/>
<path d="M143.473 108.668C143.086 107.585 142.158 106.734 140.998 106.58L113.85 102.635L101.707 78.0398C101.166 76.957 100.161 76.3383 99.0004 76.3383C97.8402 76.3383 96.7574 77.0344 96.2933 78.0398L84.1504 102.635L57.0027 106.58C55.3012 106.812 54.141 108.359 54.4504 110.06C54.5277 110.756 54.8371 111.375 55.3785 111.839L75.0238 130.943L70.3832 157.936C70.0738 159.638 71.234 161.184 72.8582 161.494C73.5543 161.571 74.173 161.494 74.7918 161.184L99.0777 148.423L123.364 161.184C124.833 161.958 126.689 161.416 127.463 159.87C127.772 159.251 127.85 158.555 127.772 157.936L123.132 130.943L142.777 111.839C143.55 110.988 143.86 109.751 143.473 108.668ZM120.038 128.468C119.342 129.164 118.955 130.17 119.187 131.175L123.596 157.008L100.393 144.787C99.4644 144.323 98.459 144.323 97.5308 144.787L74.3277 157.008L78.7363 131.175C78.891 130.17 78.5816 129.164 77.8855 128.468L59.091 110.137L85.0012 106.348C86.0066 106.193 86.8574 105.574 87.3215 104.646L98.923 81.1336L110.525 104.646C110.989 105.574 111.839 106.193 112.845 106.348L138.755 110.137L120.038 128.468Z" fill="white"/>
<path d="M184.62 104.646C184.31 103.641 183.382 102.867 182.299 102.712L160.721 99.5414L151.053 79.9734C150.588 78.968 149.583 78.4266 148.5 78.4266C147.417 78.4266 146.412 79.0453 145.948 79.9734L136.28 99.5414L114.701 102.712C114.392 102.79 114.082 102.867 113.773 103.022C112.845 103.563 112.458 104.723 112.999 105.652C113.309 106.193 113.85 106.58 114.392 106.657L138.832 110.215L128.778 120.037C128.004 120.811 128.004 121.971 128.778 122.745L125.065 144.246C124.833 145.793 125.838 147.262 127.385 147.495C128.004 147.572 128.623 147.495 129.164 147.185L148.5 137.053L167.836 147.185C169.228 147.881 170.93 147.417 171.703 146.025C172.013 145.484 172.09 144.865 172.013 144.246L168.3 122.745L183.924 107.508C184.62 106.734 184.929 105.652 184.62 104.646ZM165.129 120.347C164.433 120.966 164.124 121.971 164.278 122.822L167.681 142.777L149.738 133.341C148.887 132.877 147.959 132.877 147.108 133.341L129.164 142.777L132.567 122.822C132.645 122.435 132.645 121.971 132.49 121.584L142.622 111.762C143.86 110.602 143.86 108.668 142.699 107.43C142.235 106.966 141.617 106.657 140.921 106.502L127.849 104.569L137.285 103.177C138.213 103.022 138.987 102.48 139.451 101.63L148.5 83.5312L157.472 101.707C157.859 102.558 158.71 103.099 159.638 103.254L179.67 106.193L165.129 120.347Z" fill="white"/>
<path d="M84.2275 103.022C83.9181 102.867 83.6088 102.79 83.2994 102.713L61.7205 99.5414L52.0525 79.9734C51.3564 78.5812 49.6549 77.9625 48.2627 78.6586C47.7213 78.968 47.2572 79.3547 46.9478 79.9734L37.2799 99.5414L15.7009 102.713C14.1541 102.945 13.0713 104.414 13.3033 105.961C13.3806 106.58 13.69 107.121 14.1541 107.585L29.7775 122.822L26.065 144.323C25.833 145.87 26.8385 147.34 28.3853 147.572C29.0041 147.649 29.6228 147.572 30.1642 147.262L49.5002 137.13L68.8361 147.262C70.2283 147.959 71.9299 147.495 72.7033 146.102C73.0127 145.561 73.09 144.942 73.0127 144.323L69.3002 122.822C70.0736 122.048 70.0736 120.811 69.3002 120.115L59.2455 110.292L83.6861 106.734C84.7689 106.58 85.465 105.574 85.3103 104.569C85.1556 103.795 84.7689 103.254 84.2275 103.022ZM57.0025 106.58C55.3009 106.812 54.1408 108.359 54.4502 110.06C54.5275 110.756 54.8369 111.375 55.3783 111.839L65.5103 121.662C65.433 122.048 65.3556 122.512 65.433 122.899L68.8361 142.854L50.8924 133.418C50.0416 132.954 49.1135 132.954 48.2627 133.418L30.3189 142.854L33.722 122.899C33.8767 121.971 33.5674 121.043 32.8713 120.424L18.3306 106.27L38.3627 103.331C39.2908 103.177 40.0642 102.635 40.5283 101.784L49.5002 83.5312L58.472 101.707C58.8588 102.558 59.7095 103.099 60.6377 103.254L70.0736 104.646L57.0025 106.58Z" fill="white"/>
<path d="M197.846 93.6633C197.536 92.7351 196.763 92.1164 195.835 91.9617L182.299 90.0281L176.267 77.8078C175.88 76.957 174.952 76.4156 174.024 76.4156C173.096 76.4156 172.167 76.957 171.781 77.8078L165.748 90.0281L155.229 91.575C154.146 91.7297 153.45 92.7351 153.605 93.7406C153.605 93.9726 153.682 94.1273 153.76 94.282L157.472 101.784C157.859 102.635 158.71 103.177 159.638 103.331L179.67 106.27L173.405 112.38C172.632 113.154 172.632 114.314 173.405 115.087C173.56 115.242 173.714 115.32 173.869 115.474L186.089 121.894C187.327 122.512 188.874 122.048 189.492 120.811C189.724 120.347 189.802 119.728 189.724 119.187L187.404 105.729L197.149 96.2156C197.923 95.5195 198.155 94.5914 197.846 93.6633ZM178.046 113.231L183.846 107.585L185.471 117.176L178.046 113.231ZM184.233 103.486C184.156 103.563 184.078 103.641 184.078 103.718C183.614 103.177 182.996 102.867 182.299 102.712L160.721 99.5414L158.478 94.9008L167.063 93.6633C167.914 93.5086 168.61 93.0445 168.919 92.2711L174.024 81.8297L179.206 92.2711C179.592 93.0445 180.289 93.5086 181.062 93.6633L192.586 95.3648L184.233 103.486Z" fill="white"/>
<g filter="url(#filter0_dd)">
<path d="M44.1634 92.5031C43.854 91.9617 43.3126 91.575 42.6938 91.4977L32.1751 89.9508L26.1423 77.7305C25.5235 76.493 24.054 75.9516 22.7391 76.5703C22.2751 76.8023 21.811 77.1891 21.579 77.7305L15.5462 89.9508L2.01102 91.8844C0.618835 92.1164 -0.30929 93.3539 -0.0772588 94.7461C8.49143e-05 95.2875 0.232116 95.8289 0.618835 96.2156L10.3641 105.729L8.04383 119.187C7.8118 120.579 8.73993 121.816 10.0548 122.126C10.5962 122.203 11.1376 122.126 11.679 121.894L23.8993 115.474C24.8274 115.01 25.2141 113.773 24.6727 112.845C24.5954 112.69 24.4407 112.535 24.286 112.38L18.0212 106.27L38.0532 103.331C38.9813 103.177 39.7548 102.635 40.2188 101.784L43.9313 94.282C44.4727 93.7406 44.4727 93.0445 44.1634 92.5031ZM19.9548 113.231L12.4524 117.176L14.0766 107.585L19.9548 113.231ZM37.2798 99.5414L15.7009 102.712C15.0048 102.79 14.386 103.177 13.922 103.718C13.8446 103.641 13.8446 103.563 13.7673 103.486L5.41415 95.3648L16.9384 93.6633C17.7891 93.5086 18.4852 93.0445 18.7946 92.2711L23.8993 81.8297L29.004 92.2711C29.3907 93.0445 30.0868 93.5086 30.8602 93.6633L39.4454 94.9008L37.2798 99.5414Z" fill="white"/>
<path d="M42.6211 91.9923L42.6211 91.9924L42.6318 91.9938C43.0817 92.05 43.4913 92.3349 43.7292 92.7512C43.9437 93.1264 43.9368 93.5694 43.5778 93.9285L43.5197 93.9866L43.4832 94.0603L39.7753 101.553C39.3854 102.263 38.7474 102.707 37.9756 102.837L17.9486 105.776L16.9483 105.922L17.6721 106.628L23.9325 112.734C23.9332 112.735 23.934 112.736 23.9347 112.736C24.1079 112.91 24.1925 113.002 24.2255 113.068L24.2327 113.083L24.2409 113.096C24.6358 113.773 24.3472 114.691 23.6757 115.027L23.6757 115.027L23.6668 115.032L11.4645 121.442C11.0146 121.631 10.5785 121.691 10.1476 121.634C9.0781 121.371 8.35398 120.372 8.5368 119.27C8.53688 119.27 8.53695 119.269 8.53703 119.269L10.8569 105.814L10.9015 105.555L10.7134 105.371L0.97039 95.8601C0.676087 95.5647 0.482862 95.1314 0.417716 94.6754L0.41785 94.6754L0.415938 94.6639C0.231775 93.5589 0.957848 92.5696 2.08777 92.3785L15.6169 90.4458L15.8778 90.4085L15.9945 90.1721L22.0273 77.9518L22.0333 77.9398L22.0386 77.9274C22.2093 77.529 22.5646 77.2178 22.9574 77.0202C24.0228 76.5221 25.1968 76.9588 25.6945 77.953C25.6947 77.9534 25.6949 77.9537 25.6951 77.9541L31.7267 90.1721L31.8428 90.4073L32.1023 90.4455L42.6211 91.9923ZM20.1875 113.674L20.8013 113.351L20.3011 112.871L14.423 107.225L13.7415 106.57L13.5837 107.502L11.9594 117.092L11.7907 118.089L12.6851 117.618L20.1875 113.674ZM37.3525 100.036L37.619 99.9969L37.7329 99.7528L39.8985 95.1122L40.1833 94.502L39.5167 94.4059L30.9456 93.1704C30.3119 93.0402 29.7604 92.6644 29.4521 92.0493C29.4518 92.0487 29.4515 92.0481 29.4512 92.0475L24.3485 81.6101L23.8993 80.6913L23.4501 81.6101L18.3454 92.0515L18.3373 92.0682L18.3304 92.0854C18.1008 92.6592 17.5785 93.0367 16.8567 93.1699L5.34111 94.8702L4.34012 95.018L5.06561 95.7233L13.3956 103.822C13.3961 103.823 13.3968 103.824 13.3974 103.826C13.3983 103.827 13.3993 103.829 13.4003 103.831C13.4216 103.874 13.4714 103.975 13.5684 104.072L13.9502 104.453L14.3016 104.043C14.7026 103.576 15.2128 103.27 15.7561 103.209L15.7648 103.208L15.7736 103.207L37.3525 100.036Z" stroke="white"/>
</g>
<path d="M99 38.2078C97.9172 38.2078 97.0664 39.0586 97.0664 40.1414V51.6656C97.0664 52.7484 97.9172 53.5992 99 53.5992C100.083 53.5992 100.934 52.7484 100.934 51.6656V40.1414C100.934 39.0586 100.083 38.2078 99 38.2078Z" fill="white"/>
<path d="M121.971 40.6828C120.965 40.4508 119.883 41.0695 119.651 42.1523L117.021 53.3672C116.789 54.3727 117.408 55.4555 118.413 55.6875C119.419 55.9195 120.501 55.3008 120.733 54.2953L123.363 43.0805C123.672 41.9203 123.054 40.9148 121.971 40.6828Z" fill="white"/>
<path d="M143.241 47.7984C142.312 47.257 141.152 47.6437 140.611 48.5719L135.12 58.7039C134.578 59.632 134.965 60.7922 135.893 61.3336C136.821 61.875 137.981 61.4883 138.523 60.5602L144.014 50.4281C144.478 49.4226 144.169 48.2625 143.241 47.7984Z" fill="white"/>
<path d="M161.185 63.0351C160.566 62.107 159.406 61.875 158.477 62.4937L148.887 68.8359C147.959 69.3773 147.727 70.6148 148.268 71.543C148.81 72.4711 150.047 72.7031 150.975 72.1617C150.975 72.1617 150.975 72.1617 151.052 72.1617L160.643 65.8195C161.494 65.1234 161.726 63.9633 161.185 63.0351Z" fill="white"/>
<path d="M80.9788 53.2898L78.3491 42.075C78.1171 41.0695 77.0343 40.3734 76.0288 40.6828C75.0233 40.9148 74.4046 41.9976 74.6366 43.0031L77.1889 54.1406C77.421 55.1461 78.4264 55.8422 79.5093 55.6102C80.5921 55.3781 81.2108 54.3727 80.9788 53.2898Z" fill="white"/>
<path d="M62.8808 58.6266L57.3894 48.4945C56.8479 47.5664 55.6878 47.1797 54.7597 47.7211C53.8315 48.2625 53.4448 49.4226 53.9862 50.3508L59.4776 60.4828C60.019 61.4109 61.1792 61.7976 62.1073 61.2562C63.0354 60.7922 63.3448 59.632 62.8808 58.6266Z" fill="white"/>
<path d="M49.1133 68.8359L39.5227 62.4937C38.5946 61.875 37.4344 62.1844 36.8157 63.0352C36.1969 63.9633 36.5063 65.1234 37.3571 65.7422L46.9477 72.0844C47.7985 72.7031 49.036 72.4711 49.6547 71.543C50.2735 70.6922 50.0415 69.4547 49.1133 68.8359Z" fill="white"/>
</g>
<defs>
<filter id="filter0_dd" x="-4.11279" y="76.3132" width="52.4852" height="53.8415" filterUnits="userSpaceOnUse" color-interpolation-filters="sRGB">
<feFlood flood-opacity="0" result="BackgroundImageFix"/>
<feColorMatrix in="SourceAlpha" type="matrix" values="0 0 0 0 0 0 0 0 0 0 0 0 0 0 0 0 0 0 127 0"/>
<feOffset dy="4"/>
<feGaussianBlur stdDeviation="2"/>
<feColorMatrix type="matrix" values="0 0 0 0 0 0 0 0 0 0 0 0 0 0 0 0 0 0 0.25 0"/>
<feBlend mode="normal" in2="BackgroundImageFix" result="effect1_dropShadow"/>
<feColorMatrix in="SourceAlpha" type="matrix" values="0 0 0 0 0 0 0 0 0 0 0 0 0 0 0 0 0 0 127 0"/>
<feOffset dy="4"/>
<feGaussianBlur stdDeviation="2"/>
<feColorMatrix type="matrix" values="0 0 0 0 0 0 0 0 0 0 0 0 0 0 0 0 0 0 0.25 0"/>
<feBlend mode="normal" in2="effect1_dropShadow" result="effect2_dropShadow"/>
<feBlend mode="normal" in="SourceGraphic" in2="effect2_dropShadow" result="shape"/>
</filter>
<clipPath id="clip0">
<rect width="198" height="198" fill="white"/>
</clipPath>
</defs>
</svg>
