<svg width="100" height="132" viewBox="0 0 100 132" fill="none" xmlns="http://www.w3.org/2000/svg">
<path d="M57.0211 56.0365C56.085 55.234 55.0151 54.6991 53.8114 54.2979C52.6078 54.0304 51.2704 53.8967 49.6655 53.8967H43.5135C42.4436 53.8967 41.7749 54.1641 41.24 54.5653C40.8388 54.9666 40.5713 55.769 40.5713 56.8389V74.0912C40.5713 74.8936 40.5713 75.4286 40.8388 75.9635C40.9725 76.4985 41.24 76.766 41.6412 77.0334C42.0424 77.3009 42.7111 77.4347 43.6473 77.4347H49.7993C50.8692 77.4347 51.8053 77.3009 52.7415 77.1672C53.5439 77.0334 54.3464 76.766 55.1488 76.4985C55.9512 76.0973 56.6199 75.6961 57.1549 75.1611C57.9573 74.3587 58.626 73.5562 59.161 72.6201C59.6959 71.6839 60.0971 70.614 60.3646 69.4103C60.6321 68.2067 60.7658 67.003 60.7658 65.5319C60.7658 61.386 59.5622 58.1763 57.0211 56.0365ZM53.5439 72.6201C53.1427 72.8875 52.7415 73.155 52.3403 73.2888C51.8053 73.4225 51.4041 73.5562 51.0029 73.5562C50.6017 73.5562 49.933 73.5562 49.1306 73.5562H45.5196V57.5076H48.7293C50.2005 57.5076 51.4041 57.6413 52.474 58.0426C53.5439 58.31 54.3464 59.1125 55.0151 60.3161C55.6838 61.5198 56.085 63.2584 56.085 65.5319C55.9512 69.0091 55.1488 71.2827 53.5439 72.6201Z" fill="#FFCD29"/>
<path d="M99.5504 26.3465L99.4167 26.2128V26.079L74.0063 0.668693L73.8726 0.534954C73.8726 0.534954 73.7388 0.534954 73.7388 0.401216C73.7388 0.401216 73.6051 0.401216 73.6051 0.267477C73.2039 0 72.8027 0 72.2677 0H9.27684C6.86955 0 4.59599 0.93617 2.99113 2.54103L2.85739 2.67477C1.25253 4.27964 0.182617 6.68693 0.182617 9.09422V122.906C0.182617 125.447 1.25253 127.72 2.85739 129.325C4.46225 130.93 6.86955 132 9.27684 132H90.7237C93.2647 132 95.5382 130.93 97.1431 129.325C98.748 127.72 99.8179 125.313 99.8179 122.906V27.6839C99.8179 27.1489 99.6841 26.7477 99.5504 26.3465ZM74.8088 9.62918L89.9212 24.7416H78.8209C77.751 24.7416 76.6811 24.3404 76.0124 23.538C75.3437 22.8693 74.8088 21.7994 74.8088 20.7295V9.62918ZM94.0671 122.906C94.0671 123.842 93.6659 124.644 92.9972 125.313C92.3285 125.982 91.5261 126.383 90.5899 126.383H9.27684C8.34067 126.383 7.53824 125.982 6.86955 125.447C6.20085 124.778 5.93338 123.976 5.93338 123.04V8.96049C5.93338 8.02432 6.33459 7.22188 7.00329 6.55319L7.13702 6.41945C7.80572 5.8845 8.60815 5.48328 9.41058 5.48328H69.3255V20.5957C69.3255 23.2705 70.3954 25.6778 72.2677 27.5502C74.0063 29.2888 76.5474 30.3587 79.2221 30.3587H94.0671V122.906Z" fill="#FFCD29"/>
<path d="M34.4198 55.769C33.7511 55.1003 32.9487 54.6991 31.8788 54.4316C30.9426 54.1641 29.4715 54.0304 27.7329 54.0304H21.5809C20.511 54.0304 19.7086 54.2979 19.3074 54.6991C18.7724 55.1003 18.6387 55.9027 18.6387 56.9726V75.1611C18.6387 76.0973 18.9061 76.766 19.3074 77.3009C19.7086 77.8359 20.3773 77.9696 21.046 77.9696C21.7147 77.9696 22.2496 77.7021 22.7846 77.1672C23.1858 76.6322 23.4533 75.9635 23.4533 75.0274V68.3404H27.8666C30.8089 68.3404 32.9487 67.6717 34.4198 66.4681C35.8909 65.2644 36.6934 63.3921 36.6934 60.9848C36.6934 59.9149 36.5596 58.845 36.1584 57.9088C35.6235 57.1064 35.0885 56.304 34.4198 55.769ZM31.2101 63.2584C30.8089 63.7933 30.2739 64.1945 29.4715 64.462C28.6691 64.7295 27.7329 64.8632 26.663 64.8632H23.4533V57.6413H26.663C28.8028 57.6413 30.1402 58.0426 30.9426 58.7112C31.6113 59.3799 31.8788 60.1824 31.8788 61.2523C31.745 62.0547 31.6113 62.7234 31.2101 63.2584Z" fill="#FFCD29"/>
<path d="M67.8544 53.7629C67.0519 53.8967 66.517 54.0304 66.1158 54.2979C65.7145 54.4316 65.3133 54.8328 65.1796 55.234C64.9121 55.6353 64.9121 56.1702 64.9121 56.9726V75.0274C64.9121 75.9635 65.1796 76.766 65.5808 77.1672C65.982 77.7021 66.6507 77.8359 67.3194 77.8359C67.9881 77.8359 68.523 77.5684 69.058 77.1672C69.4592 76.6322 69.7267 75.9635 69.7267 75.0274V67.2705H77.6173C78.286 67.2705 78.8209 67.1368 79.2221 66.7356C79.6233 66.4681 79.7571 65.9331 79.7571 65.3982C79.7571 64.8632 79.6233 64.462 79.2221 64.0608C78.8209 63.7933 78.286 63.5258 77.6173 63.5258H69.7267V57.5076H79.0884C79.8908 57.5076 80.4258 57.3739 80.827 56.9726C81.2282 56.5714 81.362 56.1702 81.362 55.6353C81.362 55.1003 81.2282 54.6991 80.827 54.2979C80.4258 53.8967 79.8908 53.7629 79.0884 53.7629H67.8544Z" fill="#FFCD29"/>
</svg>
